<svg width="420" height="59" viewBox="0 0 420 59" fill="none" xmlns="http://www.w3.org/2000/svg">
<rect y="12" width="420" height="6" rx="3" fill="#EAEAEA"/>
<rect y="12" width="198" height="6" rx="3" fill="#F5E934"/>
<circle cx="197.5" cy="14.5" r="13" fill="white" stroke="#F5E934" stroke-width="3"/>
<path d="M7.808 52H0.576V50.784L4.528 46.752C5.584 45.696 6.112 44.7893 6.112 44.032C6.112 43.4133 5.92 42.928 5.536 42.576C5.16267 42.2133 4.69333 42.032 4.128 42.032C3.072 42.032 2.304 42.5333 1.824 43.536L0.576 42.8C0.917333 42.0853 1.39733 41.5413 2.016 41.168C2.63467 40.784 3.33333 40.592 4.112 40.592C5.06133 40.592 5.87733 40.9013 6.56 41.52C7.25333 42.1493 7.6 42.9813 7.6 44.016C7.6 45.1467 6.93333 46.3787 5.6 47.712L2.736 50.56H7.808V52ZM16.5052 50.624C15.7586 51.68 14.6973 52.208 13.3213 52.208C11.9453 52.208 10.8839 51.68 10.1373 50.624C9.37992 49.5573 9.00125 48.1493 9.00125 46.4C9.00125 44.6507 9.37992 43.2427 10.1373 42.176C10.8839 41.12 11.9453 40.592 13.3213 40.592C14.6973 40.592 15.7586 41.12 16.5052 42.176C17.2626 43.2427 17.6413 44.6507 17.6413 46.4C17.6413 48.1493 17.2626 49.5573 16.5052 50.624ZM10.4893 46.4C10.4893 47.7867 10.7346 48.8587 11.2253 49.616C11.7159 50.3733 12.4146 50.752 13.3213 50.752C14.2279 50.752 14.9266 50.3733 15.4173 49.616C15.9186 48.8587 16.1693 47.7867 16.1693 46.4C16.1693 45.0133 15.9186 43.9413 15.4173 43.184C14.9266 42.416 14.2279 42.032 13.3213 42.032C12.4146 42.032 11.7159 42.4107 11.2253 43.168C10.7346 43.9253 10.4893 45.0027 10.4893 46.4ZM29.9274 44H31.4154V52H30.0554V46.192L27.5114 50.288H27.3354L24.7914 46.192V52H23.4154V44H24.9034L27.4154 48.048L29.9274 44Z" fill="#181818"/>
<path d="M384.808 52H377.576V50.784L381.528 46.752C382.584 45.696 383.112 44.7893 383.112 44.032C383.112 43.4133 382.92 42.928 382.536 42.576C382.163 42.2133 381.693 42.032 381.128 42.032C380.072 42.032 379.304 42.5333 378.824 43.536L377.576 42.8C377.917 42.0853 378.397 41.5413 379.016 41.168C379.635 40.784 380.333 40.592 381.112 40.592C382.061 40.592 382.877 40.9013 383.56 41.52C384.253 42.1493 384.6 42.9813 384.6 44.016C384.6 45.1467 383.933 46.3787 382.6 47.712L379.736 50.56H384.808V52ZM393.505 50.624C392.759 51.68 391.697 52.208 390.321 52.208C388.945 52.208 387.884 51.68 387.137 50.624C386.38 49.5573 386.001 48.1493 386.001 46.4C386.001 44.6507 386.38 43.2427 387.137 42.176C387.884 41.12 388.945 40.592 390.321 40.592C391.697 40.592 392.759 41.12 393.505 42.176C394.263 43.2427 394.641 44.6507 394.641 46.4C394.641 48.1493 394.263 49.5573 393.505 50.624ZM387.489 46.4C387.489 47.7867 387.735 48.8587 388.225 49.616C388.716 50.3733 389.415 50.752 390.321 50.752C391.228 50.752 391.927 50.3733 392.417 49.616C392.919 48.8587 393.169 47.7867 393.169 46.4C393.169 45.0133 392.919 43.9413 392.417 43.184C391.927 42.416 391.228 42.032 390.321 42.032C389.415 42.032 388.716 42.4107 388.225 43.168C387.735 43.9253 387.489 45.0027 387.489 46.4ZM403.583 50.624C402.837 51.68 401.775 52.208 400.399 52.208C399.023 52.208 397.962 51.68 397.215 50.624C396.458 49.5573 396.079 48.1493 396.079 46.4C396.079 44.6507 396.458 43.2427 397.215 42.176C397.962 41.12 399.023 40.592 400.399 40.592C401.775 40.592 402.837 41.12 403.583 42.176C404.341 43.2427 404.719 44.6507 404.719 46.4C404.719 48.1493 404.341 49.5573 403.583 50.624ZM397.567 46.4C397.567 47.7867 397.813 48.8587 398.303 49.616C398.794 50.3733 399.493 50.752 400.399 50.752C401.306 50.752 402.005 50.3733 402.495 49.616C402.997 48.8587 403.247 47.7867 403.247 46.4C403.247 45.0133 402.997 43.9413 402.495 43.184C402.005 42.416 401.306 42.032 400.399 42.032C399.493 42.032 398.794 42.4107 398.303 43.168C397.813 43.9253 397.567 45.0027 397.567 46.4ZM417.006 44H418.494V52H417.134V46.192L414.59 50.288H414.414L411.87 46.192V52H410.493V44H411.982L414.494 48.048L417.006 44Z" fill="#181818"/>
</svg>
